<?xml version="1.0" encoding="UTF-8" standalone="no"?>
<svg
   width="64"
   height="64"
   version="1.1"
   id="svg22"
   sodipodi:docname="saucebox.svg"
   xmlns:inkscape="http://www.inkscape.org/namespaces/inkscape"
   xmlns:sodipodi="http://sodipodi.sourceforge.net/DTD/sodipodi-0.dtd"
   xmlns="http://www.w3.org/2000/svg"
   xmlns:svg="http://www.w3.org/2000/svg"
   xmlns:rdf="http://www.w3.org/1999/02/22-rdf-syntax-ns#"
   xmlns:cc="http://creativecommons.org/ns#"
   xmlns:dc="http://purl.org/dc/elements/1.1/">
  <sodipodi:namedview
     id="namedview1"
     pagecolor="#ffffff"
     bordercolor="#000000"
     borderopacity="0.25"
     inkscape:showpageshadow="2"
     inkscape:pageopacity="0.0"
     inkscape:pagecheckerboard="0"
     inkscape:deskcolor="#d1d1d1">
    <inkscape:page
       x="0"
       y="0"
       width="64"
       height="64"
       id="page2"
       margin="0"
       bleed="0" />
  </sodipodi:namedview>
  <metadata
     id="metadata28">
    <rdf:RDF>
      <cc:Work
         rdf:about="">
        <dc:format>image/svg+xml</dc:format>
        <dc:type
           rdf:resource="http://purl.org/dc/dcmitype/StillImage" />
        <dc:title />
      </cc:Work>
    </rdf:RDF>
  </metadata>
  <defs
     id="defs26">
    <style
       type="text/css"
       id="style860" />
    <style
       type="text/css"
       id="style867" />
    <style
       type="text/css"
       id="style869" />
    <filter
       id="filter1057"
       x="-0.026999999"
       y="-0.026999999"
       width="1.054"
       height="1.054"
       color-interpolation-filters="sRGB">
      <feGaussianBlur
         stdDeviation="0.61875"
         id="feGaussianBlur871" />
    </filter>
    <linearGradient
       id="linearGradient1053"
       x1="-127"
       x2="-72"
       y1="60"
       y2="5"
       gradientTransform="translate(131.5,-0.51)"
       gradientUnits="userSpaceOnUse">
      <stop
         stop-color="#df2a2a"
         offset="0"
         id="stop874"
         style="stop-color:#ff5500;stop-opacity:1;" />
      <stop
         stop-color="#f83f3f"
         offset="1"
         id="stop876"
         style="stop-color:#ffd500;stop-opacity:1;" />
    </linearGradient>
    <style
       type="text/css"
       id="style1026" />
    <style
       type="text/css"
       id="style1036" />
    <style
       type="text/css"
       id="style1038" />
    <style
       type="text/css"
       id="style1040" />
    <style
       type="text/css"
       id="style1042" />
    <style
       type="text/css"
       id="style1044" />
    <style
       type="text/css"
       id="style1046" />
    <style
       type="text/css"
       id="style1048" />
  </defs>
  <rect
     x="4.5"
     y="4.5"
     width="55"
     height="55"
     ry="15"
     fill="#141414"
     filter="url(#filter1057)"
     opacity="0.3"
     stroke-linecap="round"
     stroke-width="2.7444"
     id="rect881"
     style="display:inline" />
  <rect
     x="4.5"
     y="4.5"
     width="55"
     height="55"
     ry="15"
     fill="url(#linearGradient1053)"
     stroke-linecap="round"
     stroke-width="2.7444"
     id="rect883"
     style="fill:url(#linearGradient1053)" />
  <g
     id="g1186"
     transform="translate(2.000001,2.2222232)"
     style="display:inline">
    <path
       style="fill:#ffffff;fill-opacity:1;stroke-width:0.666667"
       d="M 30.090213,9.7788467 A 3.8819529,3.8465893 0 0 0 28.05846,10.292676 l -14.117677,8.077029 a 3.8819529,3.8465893 0 0 0 -1.940782,3.330874 v 16.154058 a 3.8819529,3.8465893 0 0 0 1.940782,3.330874 l 14.117677,8.077031 a 3.8819529,3.8465893 0 0 0 3.881567,0 l 14.119185,-8.077031 a 3.8819529,3.8465893 0 0 0 1.940786,-3.330874 V 21.700579 A 3.8819529,3.8465893 0 0 0 46.059212,18.369705 L 31.940027,10.292676 A 3.8819529,3.8465893 0 0 0 30.090213,9.7788467 Z"
       id="path4" />
    <path
       style="opacity:0.3;fill:#bfbfbf;fill-opacity:1;stroke-width:0.666667"
       d="m 30.090666,9.7796367 a 3.8819529,3.8465893 0 0 0 -2.03166,0.5133933 l -14.11801,8.076635 a 3.8819529,3.8465893 0 0 0 -1.644943,1.871281 l 17.703946,8.584449 17.705793,-8.586309 A 3.8819529,3.8465893 0 0 0 46.059005,18.369665 L 31.939146,10.29303 a 3.8819529,3.8465893 0 0 0 -1.84848,-0.5133933 z"
       id="path6" />
    <path
       style="opacity:0.3;fill:#808080;fill-opacity:1;stroke-width:0.666667"
       d="m 46.059005,18.369665 a 3.8819529,3.8465893 0 0 1 0.181327,0.111608 3.8819529,3.8465893 0 0 0 -0.181327,-0.111608 z m 0.23314,0.148811 a 3.8819529,3.8465893 0 0 1 0.257194,0.186012 3.8819529,3.8465893 0 0 0 -0.257194,-0.186012 z m 0.360814,0.275298 a 3.8819529,3.8465893 0 0 1 0.18688,0.16741 3.8819529,3.8465893 0 0 0 -0.18688,-0.16741 z m 0.246093,0.228794 a 3.8819529,3.8465893 0 0 1 0.21094,0.230655 3.8819529,3.8465893 0 0 0 -0.21094,-0.230655 z m 0.21094,0.230655 a 3.8819529,3.8465893 0 0 1 0.429273,0.6343 3.8819529,3.8465893 0 0 0 -0.429273,-0.6343 z m 0.444074,0.665924 a 3.8819529,3.8465893 0 0 1 0.151726,0.319939 3.8819529,3.8465893 0 0 0 -0.151726,-0.319939 z m 0.151726,0.319939 -17.705793,8.586309 v 20.948661 a 3.8819529,3.8465893 0 0 0 1.939147,-0.511533 l 14.119859,-8.076636 a 3.8819529,3.8465893 0 0 0 1.940993,-3.331474 V 21.701139 a 3.8819529,3.8465893 0 0 0 -0.294206,-1.462053 z"
       id="path8" />
  </g>
</svg>
